<svg t="1767366893329" class="icon" viewBox="0 0 1024 1024" version="1.1" xmlns="http://www.w3.org/2000/svg" p-id="106998" width="200" height="200"><path d="M344.064 36.571429v95.085714H155.428571a23.771429 23.771429 0 0 0-23.259428 19.017143l-0.512 4.754285-0.073143 509.952L306.176 505.417143a95.085714 95.085714 0 0 1 121.270857-5.997714l4.827429 3.876571 152.137143 130.413714 102.546285-102.4a95.085714 95.085714 0 0 1 119.003429-12.507428l5.266286 3.657143 81.042285 60.781714 0.073143-118.784 0.512-7.021714a47.542857 47.542857 0 0 1 94.061714 0l0.512 7.021714v404.114286c0 62.171429-47.762286 113.225143-108.617142 118.418285l-10.24 0.438857h-713.142858l-10.24-0.438857a118.857143 118.857143 0 0 1-108.105142-107.52L36.571429 868.498286v-713.142857l0.438857-10.24A118.857143 118.857143 0 0 1 155.428571 36.571429h188.708572z m26.331429 538.916571L131.657143 794.404571l0.073143 74.166858c0 11.483429 8.118857 21.065143 19.017143 23.259428l4.754285 0.512h713.142857a23.771429 23.771429 0 0 0 23.259429-19.017143l0.512-4.754285-0.073143-166.473143-138.093714-103.570286-97.353143 97.28 76.288 65.316571a47.542857 47.542857 0 0 1-58.002286 75.190858l-3.876571-2.925715-300.836572-257.901714zM649.069714 60.269714a47.542857 47.542857 0 0 1 3.291429 63.634286l-3.291429 3.657143-61.44 61.44 61.44 61.44a47.542857 47.542857 0 0 1 3.291429 63.634286l-3.291429 3.657142a47.542857 47.542857 0 0 1-63.634285 3.218286l-3.584-3.291428-95.085715-95.085715a47.542857 47.542857 0 0 1-3.291428-63.634285l3.291428-3.584 95.085715-95.085715a47.542857 47.542857 0 0 1 67.291428 0zM855.259429 57.051429l3.584 3.218285 95.085714 95.085715a47.542857 47.542857 0 0 1 3.291428 63.634285l-3.291428 3.657143-95.085714 95.085714a47.542857 47.542857 0 0 1-70.509715-63.634285l3.291429-3.657143 61.44-61.44-61.44-61.44a47.542857 47.542857 0 0 1-3.291429-63.634286l3.291429-3.657143a47.542857 47.542857 0 0 1 63.634286-3.218285zM344.210286 36.571429a47.542857 47.542857 0 0 1 7.021714 94.573714l-7.021714 0.512V36.571429z" p-id="106999" fill="#e0620d"></path></svg>