<svg t="1775029833682" class="icon" viewBox="0 0 1024 1024" version="1.1" xmlns="http://www.w3.org/2000/svg" p-id="5485" width="200" height="200"><path d="M0 0m170.688 0l682.624 0q170.688 0 170.688 170.688l0 682.624q0 170.688-170.688 170.688l-682.624 0q-170.688 0-170.688-170.688l0-682.624q0-170.688 170.688-170.688Z" fill="#F0F0F0" p-id="5486"></path><path d="M609.408 225.408l103.872 103.872a17.088 17.088 0 0 0 24.128 0l103.872-103.872a17.088 17.088 0 0 0 0-24.128l-103.872-103.872a17.088 17.088 0 0 0-24.128 0L609.408 201.28a17.088 17.088 0 0 0 0 24.128zM566.72 268.096l103.872 103.808a17.088 17.088 0 0 1 0 24.192L310.72 755.84a17.088 17.088 0 0 1-24.128 0L182.72 652.16a17.088 17.088 0 0 1 0-24.192L542.592 268.16a17.088 17.088 0 0 1 24.128 0zM161.728 702.208l74.752 74.688a17.088 17.088 0 0 1-6.656 28.288l-112.128 37.376a17.088 17.088 0 0 1-21.568-21.632l37.376-112.064a17.088 17.088 0 0 1 28.224-6.656z" fill="#999999" p-id="5487"></path><path d="M682.688 426.688a256 256 0 1 1 0 512 256 256 0 0 1 0-512z m0 64a192 192 0 1 0 0 384 192 192 0 0 0 0-384z" fill="#EE2223" p-id="5488"></path><path d="M682.688 426.688a256 256 0 1 1 0 512 256 256 0 0 1 0-512z m0 64a192 192 0 1 0 0 384 192 192 0 0 0 0-384z" fill="#EE2223" p-id="5489"></path><path d="M534.656 489.344l320 320-45.312 45.312-320-320z" fill="#EE2223" p-id="5490"></path></svg>