<svg t="1767367606621" class="icon" viewBox="0 0 1024 1024" version="1.1" xmlns="http://www.w3.org/2000/svg" p-id="15611" width="200" height="200"><path d="M511.966509 0.066982c96.036384 0 185.886507 26.451603 262.724147 72.443261L767.949763 68.670494l-127.948963 221.638835A254.788666 254.788666 0 0 0 511.966509 256.050237V0.066982z" fill="#E70212" p-id="15612"></path><path d="M767.949763 68.670494a509.577332 509.577332 0 0 1 191.304819 194.120635L955.329506 256.050237l-221.638835 127.991627a257.263171 257.263171 0 0 0-93.689871-93.689871L767.949763 68.670494z" fill="#EA6101" p-id="15613"></path><path d="M955.329506 256.050237A509.577332 509.577332 0 0 1 1023.933018 519.798317V512.033491h-255.983255a254.788666 254.788666 0 0 0-34.259092-127.991627l221.638835-127.991627z" fill="#F39801" p-id="15614"></path><path d="M1023.933018 512.033491c0 90.020778-23.251812 174.665907-64.038478 248.175765l-4.565034 7.80749-221.638835-127.948964c21.758577-37.672202 34.259092-81.402675 34.259092-128.034291v-0.042664L1023.933018 512.033491z" fill="#FCC902" p-id="15615"></path><path d="M733.690671 640.025118l221.638835 127.991628a509.66266 509.66266 0 0 1-179.52959 182.900035l-7.850153 4.479707-127.991627-221.638835A257.263171 257.263171 0 0 0 733.690671 640.025118z" fill="#FEF200" p-id="15616"></path><path d="M640.0008 733.757653L767.949763 955.396488A509.66266 509.66266 0 0 1 521.011251 1024H511.966509v-255.983254a254.788666 254.788666 0 0 0 128.034291-34.259093z" fill="#90C320" p-id="15617"></path><path d="M511.966509 768.016746v255.983254c-90.020778 0-174.665907-23.251812-248.175765-64.038477L255.983254 955.396488l127.991628-221.638835c37.672202 21.758577 81.402675 34.259092 128.034291 34.259093z" fill="#019A44" p-id="15618"></path><path d="M383.974882 733.757653l-127.991628 221.638835a509.66266 509.66266 0 0 1-182.900035-179.529589L68.603512 768.016746l221.638835-127.991628A257.263171 257.263171 0 0 0 383.974882 733.757653z" fill="#019E97" p-id="15619"></path><path d="M255.983254 512.033491c0 46.631616 12.457852 90.362089 34.259093 128.034291L68.603512 768.016746A509.66266 509.66266 0 0 1 0 521.078233V512.033491h255.983254z" fill="#0169B8" p-id="15620"></path><path d="M68.603512 256.050237l221.638835 127.991627A254.788666 254.788666 0 0 0 255.983254 512.033491H0c0-90.020778 23.251812-174.665907 64.038477-248.175765L68.603512 256.050237z" fill="#1C2089" p-id="15621"></path><path d="M262.681483 64.745418L255.983254 68.670494l127.991628 221.638835A257.263171 257.263171 0 0 0 290.242347 384.041864L68.603512 256.050237a509.577332 509.577332 0 0 1 194.120635-191.304819z" fill="#621988" p-id="15622"></path><path d="M519.731334 0.066982H511.966509v255.983255a254.788666 254.788666 0 0 0-128.034291 34.259092L255.983254 68.670494A509.577332 509.577332 0 0 1 519.731334 0.066982z" fill="#910783" p-id="15623"></path></svg>