<svg t="1767366808037" class="icon" viewBox="0 0 1024 1024" version="1.1" xmlns="http://www.w3.org/2000/svg" p-id="103196" width="200" height="200"><path d="M878.921143 96c27.099429 0 49.078857 21.942857 49.078857 49.078857v349.842286c0 27.099429-21.942857 49.078857-49.078857 49.078857h-221.842286c-27.099429 0-49.078857-21.942857-49.078857-49.078857V145.078857c0-27.099429 21.942857-49.078857 49.078857-49.078857z m-14.921143 320h-192v64h192v-64z m0-128h-192v64h192v-64z m0-128h-192v64h192v-64zM384 309.321143A202.678857 202.678857 0 0 1 586.678857 512v213.321143a202.678857 202.678857 0 0 1-202.678857 202.678857H298.678857a202.678857 202.678857 0 0 1-202.678857-202.678857V512a202.678857 202.678857 0 0 1 202.678857-202.678857z m138.642286 298.642286H160v117.394285a138.678857 138.678857 0 0 0 131.547429 138.459429l7.131428 0.182857H384a138.678857 138.678857 0 0 0 138.678857-138.678857l-0.036571-117.357714z m-213.321143-234.642286h-10.642286A138.678857 138.678857 0 0 0 160 512v31.963429h149.321143v-170.642286z" p-id="103197" fill="#8992c8"></path></svg>