<?xml version="1.0" standalone="no"?><!DOCTYPE svg PUBLIC "-//W3C//DTD SVG 1.1//EN" "http://www.w3.org/Graphics/SVG/1.1/DTD/svg11.dtd"><svg t="1767366207284" class="icon" viewBox="0 0 1024 1024" version="1.1" xmlns="http://www.w3.org/2000/svg" p-id="95138" xmlns:xlink="http://www.w3.org/1999/xlink" width="200" height="200"><path d="M753.5 130.4v763.3h70.1v66.4H477v-66.4h70.1V547.1H443.9c-44.2 0-84.8-11.1-121.7-33.2-36.9-22.1-66.4-51.6-88.5-88.5s-33.2-76.8-33.2-119.8 11.1-83.6 33.2-121.7c22.1-38.1 51.6-67.6 88.5-88.5s77.4-31.3 121.7-31.3h379.8v66.4h-70.1z m-206.5 0H443.8c-49.2 0-90.3 17.2-123.5 51.6-33.2 34.4-49.8 75.6-49.8 123.5s16.6 88.5 49.8 121.7c33.2 33.2 74.4 49.8 123.5 49.8H547V130.4z m140.1 0H617v763.3h70.1V130.4z" p-id="95139"></path></svg>