<?xml version="1.0" standalone="no"?><!DOCTYPE svg PUBLIC "-//W3C//DTD SVG 1.1//EN" "http://www.w3.org/Graphics/SVG/1.1/DTD/svg11.dtd"><svg t="1767365935803" class="icon" viewBox="0 0 1024 1024" version="1.1" xmlns="http://www.w3.org/2000/svg" p-id="81379" xmlns:xlink="http://www.w3.org/1999/xlink" width="200" height="200"><path d="M896 64a64 64 0 0 1 64 64v613.952l-121.28-95.68a83.2 83.2 0 0 0-110.848 7.04l-6.016 6.784-5.312 7.616a83.2 83.2 0 0 0-12.032 34.56l-0.064 1.728H595.2A83.2 83.2 0 0 0 512 787.2v44.8H128a64 64 0 0 1-64-64V128a64 64 0 0 1 64-64h768z" fill="#B5E3CC" p-id="81380"></path><path d="M640 256a32 32 0 1 1 0 64h-32v224a32 32 0 0 1-64 0V320h-64v224a32 32 0 0 1-64 0V320H384a32 32 0 0 1 0-64h256z m160 0a96 96 0 0 1 0 192H768v96a32 32 0 0 1-26.24 31.488L736 576a32 32 0 0 1-32-32v-256a32 32 0 0 1 32-32h64zM768 384h32a32 32 0 1 0 0-64H768v64zM288 256a32 32 0 0 1 32 32v256a32 32 0 0 1-64 0V448H192v96a32 32 0 0 1-64 0v-256a32 32 0 0 1 64 0V384h64V288a32 32 0 0 1 32-32zM772.096 699.712a19.2 19.2 0 0 0-4.096 11.904v56.32L595.2 768a19.2 19.2 0 0 0-19.2 19.2v89.6a19.2 19.2 0 0 0 19.2 19.2H768v56.384a19.2 19.2 0 0 0 31.104 15.104l152.576-120.384a19.2 19.2 0 0 0 0-30.208l-152.576-120.32a19.2 19.2 0 0 0-27.008 3.136z" fill="#129250" p-id="81381"></path></svg>