<?xml version="1.0" standalone="no"?><!DOCTYPE svg PUBLIC "-//W3C//DTD SVG 1.1//EN" "http://www.w3.org/Graphics/SVG/1.1/DTD/svg11.dtd"><svg t="1767365120766" class="icon" viewBox="0 0 1160 1024" version="1.1" xmlns="http://www.w3.org/2000/svg" p-id="12589" xmlns:xlink="http://www.w3.org/1999/xlink" width="226.5625" height="200"><path d="M398.5408 736.142222l435.768889-384.568889a44.009244 44.009244 0 0 0 0-67.675022 59.483022 59.483022 0 0 0-76.731733 0l-435.768889 384.568889a43.872711 43.872711 0 0 0 0 67.675022 59.164444 59.164444 0 0 0 76.731733 0z m143.7696-66.582755a39.867733 39.867733 0 0 1 9.102222 25.031111 38.866489 38.866489 0 0 1-13.653333 30.128355L308.929422 926.151111a52.8384 52.8384 0 0 1-68.266666 0L111.047111 811.781689a39.139556 39.139556 0 0 1 0-60.302222l228.192711-201.9328a50.335289 50.335289 0 0 1 34.178845-11.969423 53.748622 53.748622 0 0 1 22.755555 4.551112l69.632-60.848356c-57.617067-41.824711-141.7216-38.365867-194.696533 7.964444L42.052267 690.631111c-56.069689 50.3808-56.069689 131.117511 0 181.4528l130.207289 114.323911a158.651733 158.651733 0 0 0 204.8 0L605.297778 785.066667c54.613333-48.196267 57.025422-125.474133 5.779911-176.355556zM1117.980444 151.916089L988.410311 37.546667c-56.797867-50.062222-148.821333-50.062222-205.664711 0L554.552889 238.933333c-52.519822 46.739911-56.388267 120.968533-9.102222 171.804445L614.4 349.889422a41.688178 41.688178 0 0 1-5.142756-20.48 38.866489 38.866489 0 0 1 13.653334-30.128355l228.875378-201.386667a50.335289 50.335289 0 0 1 34.178844-12.515556 52.383289 52.383289 0 0 1 34.178844 12.515556l129.570134 114.323911a39.139556 39.139556 0 0 1 0 60.302222l-228.192711 201.9328a50.335289 50.335289 0 0 1-34.178845 11.969423 57.7536 57.7536 0 0 1-28.353422-7.418312l-68.266667 60.302223c57.389511 45.101511 144.543289 43.099022 199.202134-4.551111l228.192711-201.9328a117.418667 117.418667 0 0 0 0-180.906667z" fill="#1A97F0" p-id="12590"></path></svg>