<svg t="1775313078512" class="icon" viewBox="0 0 1024 1024" version="1.1" xmlns="http://www.w3.org/2000/svg" p-id="11737" width="200" height="200"><path d="M937.078 868.614c0 37.13-30.089 67.219-67.229 67.219H158.52c-37.139 0-67.229-30.089-67.229-67.219V157.265c0-37.12 30.09-67.209 67.229-67.209h711.33c37.14 0 67.229 30.089 67.229 67.209v711.349z" fill="#9ED0C5" p-id="11738"></path><path d="M181.8 169.935h662.987v578.554H181.8z" fill="#F2F2F1" p-id="11739"></path><path d="M829.316 593.172c-39.086-71.551-100.546-66.06-160.391 0-28.401 44.735-41.592 22.021-41.592 22.021s-105.33-143.12-189.143-199.366C354.379 359.562 181.8 670.231 181.8 670.231v77.089h662.987V613.458l-15.471-20.286z" fill="#4C5A6F" p-id="11740"></path><path d="M636.184 297.12c0-35.933 29.125-65.058 65.04-65.058 35.951 0 65.058 29.125 65.058 65.058 0 35.923-29.106 65.049-65.058 65.049-35.915-0.001-65.04-29.126-65.04-65.049z" fill="#EAA63A" p-id="11741"></path></svg>