<svg t="1767366749042" class="icon" viewBox="0 0 1024 1024" version="1.1" xmlns="http://www.w3.org/2000/svg" p-id="102155" width="200" height="200"><path d="M426.7008 256c0-23.552 19.0976-42.6496 42.6496-42.6496h384a42.6496 42.6496 0 1 1 0 85.2992h-384A42.6496 42.6496 0 0 1 426.7008 256zM426.7008 512c0-23.552 19.0976-42.6496 42.6496-42.6496h384a42.6496 42.6496 0 1 1 0 85.2992h-384A42.6496 42.6496 0 0 1 426.7008 512zM469.2992 768c0-23.552 19.1488-42.6496 42.7008-42.6496h341.2992a42.6496 42.6496 0 0 1 0 85.2992H512A42.6496 42.6496 0 0 1 469.2992 768zM256 640a42.6496 42.6496 0 0 0-42.6496 42.6496 42.6496 42.6496 0 0 1-85.3504 0 128 128 0 1 1 256 0c0 25.856-11.264 45.6192-22.4256 59.8528-8.0384 10.1888-18.5856 20.48-26.8288 28.5184l-5.888 5.8368a42.4448 42.4448 0 0 1-2.8672 2.56l-37.4784 31.232h52.8384a42.6496 42.6496 0 1 1 0 85.3504H170.6496a42.6496 42.6496 0 0 1-27.2896-75.4688l126.5152-105.472 6.5024-6.3488 0.4096-0.4096 7.2704-7.168c4.608-4.608 7.936-8.192 10.3936-11.3664a28.672 28.672 0 0 0 3.9424-6.0928c0.3072-0.7168 0.256-0.9728 0.256-1.024A42.6496 42.6496 0 0 0 256 640zM272.3328 131.2256a42.6496 42.6496 0 0 1 26.3168 39.424v256a42.6496 42.6496 0 0 1-85.2992 0V273.664l-12.4928 12.4928a42.6496 42.6496 0 1 1-60.3648-60.3136l85.3504-85.3504a42.6496 42.6496 0 0 1 46.4896-9.216z" p-id="102156" fill="#87c38f"></path></svg>