<svg t="1767367796950" class="icon" viewBox="0 0 1024 1024" version="1.1" xmlns="http://www.w3.org/2000/svg" p-id="18541" width="200" height="200"><path d="M880.489336 512H993.882278v455.107765A56.786824 56.786824 0 0 1 937.185807 1024h-56.681412V512z" fill="#4AC3BB" fill-opacity=".603" p-id="18542"></path><path d="M143.510513 1024a113.182118 113.182118 0 0 1-80.188235-33.325176A113.980235 113.980235 0 0 1 30.117572 910.215529V113.784471C30.117572 83.606588 42.059219 54.663529 63.322278 33.325176A113.182118 113.182118 0 0 1 143.510513 0h510.238118C778.977807 0 880.489336 101.872941 880.489336 227.553882v739.553883A56.786824 56.786824 0 0 0 937.185807 1024H143.510513z" fill="#4AC3BB" p-id="18543"></path><path d="M575.653572 335.329882c64.331294 65.024 66.529882 169.758118 4.954353 237.477647l-4.954353 5.240471-98.063059 122.473412a28.175059 28.175059 0 0 1-21.985882 10.586353 28.175059 28.175059 0 0 1-21.985883-10.586353l-98.078117-122.473412-4.412236-4.638118c-63.503059-68.487529-60.777412-175.841882 6.098824-240.941176a168.478118 168.478118 0 0 1 238.426353 2.861176z m-120.048941 64.150589a56.470588 56.470588 0 0 0-49.016471 28.611764 57.735529 57.735529 0 0 0 0 57.193412 56.470588 56.470588 0 0 0 49.016471 28.611765c31.247059-0.015059 56.576-25.630118 56.576-57.22353 0-31.578353-25.328941-57.193412-56.576-57.193411z" fill="#FFFFFF" fill-opacity=".95" p-id="18544"></path></svg>