<?xml version="1.0" standalone="no"?><!DOCTYPE svg PUBLIC "-//W3C//DTD SVG 1.1//EN" "http://www.w3.org/Graphics/SVG/1.1/DTD/svg11.dtd"><svg t="1767364585914" class="icon" viewBox="0 0 1024 1024" version="1.1" xmlns="http://www.w3.org/2000/svg" p-id="8006" xmlns:xlink="http://www.w3.org/1999/xlink" width="200" height="200"><path d="M960 128c0-35.36-28.704-64.224-63.936-61.728A896.48 896.48 0 0 0 326.4 326.4a896.48 896.48 0 0 0-260.128 569.664C63.776 931.296 92.64 960 128 960c0 0 19.52 0.576 32 0 64-272 84.48-383.68 234.24-533.76C544.32 276.16 752 192 960 160V128z" fill="#F8312F" p-id="8007"></path><path d="M960 256V160a800 800 0 0 0-565.76 234.24A801.344 801.344 0 0 0 160 960h96c32-128 106.24-333.76 238.08-465.92C625.92 362.24 752 304 960 256z" fill="#FFB02E" p-id="8008"></path><path d="M960 256v96c-160 16-284.16 96-398.08 209.92C448 676.16 384 800 352 960H256c0-186.56 74.24-365.76 206.08-497.92A704.32 704.32 0 0 1 960 256z" fill="#FFF478" p-id="8009"></path><path d="M630.08 630.08C534.08 726.08 480 832 448 960h-96c0-161.28 64-315.84 177.92-430.08C643.84 416 798.72 352 960 352v96c-144 32-233.92 86.08-329.92 182.08z" fill="#00D26A" p-id="8010"></path><path d="M960 544v-96c-135.68 0-265.92 54.08-361.92 150.08-96 96-150.08 226.24-150.08 361.92h96c0-110.4 43.84-216.32 121.92-294.08C744 587.84 849.92 544 960 544z" fill="#3F5FFF" p-id="8011"></path><path d="M960 576c0 35.36-28.928 63.36-63.584 70.336a320.384 320.384 0 0 0-250.112 250.08C639.36 931.04 611.392 960 576 960h-32c0-110.4 43.84-216.32 121.92-294.08C744 587.84 849.92 544 960 544v32z" fill="#8D65C5" p-id="8012"></path></svg>